Coordinates
version=1
nRows=12
nColumns=42
inDegrees=yes

Units are S.I. units (second, meters, Newtons, ...)
If the header above contains a line with 'inDegrees', this indicates whether rotational values are in degrees (yes) or radians (no).

endheader
time	pelvis_tilt	pelvis_list	pelvis_rotation	pelvis_tx	pelvis_ty	pelvis_tz	hip_flexion_r	hip_adduction_r	hip_rotation_r	knee_angle_r	knee_adduction_r	knee_angle_r_beta	ankle_angle_r	subtalar_angle_r	mtp_angle_r	hip_flexion_l	hip_adduction_l	hip_rotation_l	knee_angle_l	knee_adduction_l	knee_angle_l_beta	ankle_angle_l	subtalar_angle_l	mtp_angle_l	lumbar_extension	lumbar_bending	lumbar_rotation	arm_flex_r	arm_add_r	arm_rot_r	elbow_flex_r	pro_sup_r	wrist_flex_r	wrist_dev_r	arm_flex_l	arm_add_l	arm_rot_l	elbow_flex_l	pro_sup_l	wrist_flex_l	wrist_dev_l
      0.15000000	      1.81020070	      6.50701033	     14.81085952	     -0.40782741	      0.88800300	      0.09933225	     20.73214815	    -16.01749970	    -34.62392366	     29.68044176	     -4.23993462	      0.51802143	      6.57860017	     16.47996800	     -9.35549650	     -0.91172933	      0.17168153	     -8.60490466	     11.80210217	      7.83553019	      0.20598554	     16.20087055	     36.06238564	     -9.35549650	    -19.59372664	     -6.45628396	     -8.48065337	    -15.42995989	     -6.87127327	    -15.78242359	     53.94934689	     90.00000001	      0.00000000	      0.00000000	      3.66554091	    -21.97738950	     14.04835128	     85.36251315	     90.00000001	      0.00000000	      0.00000000
      0.16000000	      1.49633818	      6.72880122	     15.10183013	     -0.40310736	      0.88744584	      0.09961279	     20.39639344	    -15.97500218	    -34.56087031	     29.14638969	     -4.35588959	      0.50870047	      6.99999768	     16.30154585	     -9.34601080	     -0.87848044	      0.39427332	     -8.44474858	     11.92372784	      7.74853318	      0.20810831	     16.26564153	     36.05644211	     -9.34601080	    -19.28973982	     -6.58146781	     -8.60567056	    -15.55951510	     -6.77845957	    -15.84850706	     53.91914790	     90.00000001	      0.00000000	      0.00000000	      3.54808362	    -21.75215761	     14.15179531	     85.18422080	     90.00000001	      0.00000000	      0.00000000
      0.17000000	      1.65607757	      6.48338752	     15.19364546	     -0.39884735	      0.88794176	      0.10054992	     19.65618166	    -15.17853362	    -34.04133910	     28.24381093	     -4.17666815	      0.49294749	      7.63352891	     15.65228593	     -9.32197988	     -1.18347263	     -0.02416899	     -8.05276930	     12.02978471	      7.68857188	      0.20995935	     16.66654884	     36.13578671	     -9.32197988	    -19.42366299	     -6.10122176	     -8.43133086	    -15.49719061	     -6.66397762	    -16.12405652	     53.86617455	     90.00000001	      0.00000000	      0.00000000	      3.81786470	    -21.37153519	     14.26668188	     84.39741725	     90.00000001	      0.00000000	      0.00000000
      0.18000000	      1.44886586	      6.21296007	     15.33003854	     -0.39475062	      0.88811506	      0.10130070	     19.69766536	    -14.56562728	    -32.51404481	     28.26200112	     -3.82311528	      0.49326497	      7.38097383	     12.92348277	     -9.18315090	     -1.07506496	     -0.33636219	     -7.83668140	     12.15929035	      7.61094691	      0.21221965	     16.86097808	     36.05497681	     -9.18315090	    -19.17282967	     -5.65620403	     -8.13561967	    -15.31017295	     -6.32133205	    -17.51410791	     53.53593455	     90.00000001	      0.00000000	      0.00000000	      4.16908036	    -20.79935004	     14.65409003	     83.14296045	     90.00000001	      0.00000000	      0.00000000
      0.19000000	      1.51753688	      5.99372971	     15.56349372	     -0.39020478	      0.88888362	      0.10180964	     19.44272272	    -14.20845000	    -32.70661346	     28.55775384	     -4.00586105	      0.49842683	      7.63224577	     12.78386984	     -9.17094743	     -1.17660659	     -0.48321290	     -7.57510870	     12.47984063	      7.16993017	      0.21781431	     16.92498130	     35.93976531	     -9.17094743	    -19.24143191	     -5.16614034	     -8.14762684	    -15.18900076	     -6.41542523	    -17.64040370	     53.56918930	     90.00000001	      0.00000000	      0.00000000	      4.05042351	    -20.38307841	     14.78087796	     82.87581670	     90.00000001	      0.00000000	      0.00000000
      0.20000000	      1.53299125	      5.68986542	     15.84642928	     -0.38569177	      0.88937400	      0.10249366	     19.27503499	    -13.74382932	    -33.57592924	     28.70000755	     -4.55791291	      0.50090963	      8.08675393	     12.80499220	     -9.14508653	     -1.11391533	     -0.88142542	     -7.29678702	     13.05026819	      6.96047672	      0.22777015	     17.32574311	     35.87247555	     -9.14508653	    -19.18173594	     -4.61702748	     -8.18531038	    -15.17112060	     -6.36396279	    -17.90432137	     53.57756061	     90.00000001	      0.00000000	      0.00000000	      4.07763784	    -19.86737344	     14.78836766	     82.04665082	     90.00000001	      0.00000000	      0.00000000
      0.21000000	      1.36923576	      5.48156218	     15.44849530	     -0.38169280	      0.88933357	      0.10400048	     19.68255502	    -13.28161884	    -33.26678596	     29.13265266	     -4.92835568	      0.50846071	      8.21536522	     13.03247426	     -9.13201366	     -1.10448275	     -0.96902829	     -7.42262920	     12.92999050	      6.70164752	      0.22567091	     17.44629211	     35.69419776	     -9.13201366	    -19.02426496	     -4.37869238	     -7.70124807	    -15.06477630	     -6.49521391	    -18.01404840	     53.55141183	     90.00000001	      0.00000000	      0.00000000	      3.91047031	    -19.35430919	     14.84936318	     81.81996048	     90.00000001	      0.00000000	      0.00000000
      0.22000000	      1.15443278	      5.40838643	     15.25528868	     -0.37777418	      0.88936735	      0.10510588	     19.98294409	    -13.10707201	    -32.62051448	     29.58949007	     -4.91870781	      0.51643403	      8.81003392	     13.02038948	     -9.09445751	     -1.00222003	     -0.87347263	     -7.30393811	     13.07320380	      6.34156045	      0.22817045	     17.66858839	     35.24752176	     -9.09445751	    -18.86801213	     -4.24792165	     -7.36808973	    -15.06015397	     -6.49505444	    -18.18806918	     53.50436891	     90.00000001	      0.00000000	      0.00000000	      3.89899611	    -18.79738842	     14.83457629	     81.25537439	     90.00000001	      0.00000000	      0.00000000
      0.23000000	      1.08346606	      5.24643651	     15.14203013	     -0.37345723	      0.88946913	      0.10659909	     20.01435565	    -12.65977451	    -32.14308548	     29.79295383	     -5.02983278	      0.51998514	      8.89998625	     12.93247788	     -9.08362185	     -1.08540258	     -1.01641610	     -7.17738158	     13.19371869	      6.06065647	      0.23027383	     17.68581169	     35.06124598	     -9.08362185	    -18.80948169	     -4.01914835	     -7.20417282	    -14.91115321	     -6.59487615	    -18.21430969	     53.57290695	     90.00000001	      0.00000000	      0.00000000	      3.64154220	    -18.47053549	     14.94335181	     81.16289350	     90.00000001	      0.00000000	      0.00000000
      0.24000000	      1.06474912	      4.95789390	     15.01076731	     -0.36905582	      0.88970000	      0.10812263	     19.72229257	    -11.91821352	    -30.61936491	     29.57474695	     -4.52499384	      0.51617671	      9.44147857	     11.95486460	     -9.05472611	     -1.12363819	     -1.48554987	     -7.11209379	     13.57030558	      6.17212542	      0.23684651	     18.02224626	     34.45983832	     -9.05472611	    -18.73888592	     -3.68551766	     -6.96240251	    -14.76663659	     -6.75299167	    -18.33254084	     53.71852454	     90.00000001	      0.00000000	      0.00000000	      3.41904724	    -17.98878039	     14.88653939	     80.95406066	     90.00000001	      0.00000000	      0.00000000
      0.25000000	      0.88686591	      4.98202588	     14.93229344	     -0.36469363	      0.88972007	      0.10989396	     19.69295539	    -11.65777656	    -30.15035910	     29.60728596	     -4.56134831	      0.51674462	      9.52506406	     11.67123159	     -9.04651486	     -1.06435142	     -1.38755399	     -6.88521195	     13.82901765	      5.87207378	      0.24136189	     18.02057870	     34.27949963	     -9.04651486	    -18.60971426	     -3.79244129	     -6.84710250	    -14.61099916	     -6.73431742	    -18.30508541	     53.77230619	     90.00000001	      0.00000000	      0.00000000	      3.03881424	    -17.67649547	     15.03248665	     80.89576486	     90.00000001	      0.00000000	      0.00000000
      0.26000000	      0.81296350	      4.57172368	     15.05331122	     -0.36056463	      0.89016122	      0.11150932	     19.14506473	    -10.67084024	    -27.67658345	     28.99405324	     -3.49685544	      0.50604169	      9.28716342	      6.82013159	     -8.96101228	     -0.90700533	     -1.93123209	     -6.70864758	     14.22424548	      5.82530902	      0.24825992	     18.36892063	     33.51808634	     -8.96101228	    -18.51745397	     -3.34660904	     -6.89704367	    -14.33673957	     -6.84264579	    -18.45075832	     53.76101957	     90.00000001	      0.00000000	      0.00000000	      2.80099578	    -17.15421084	     14.67781924	     80.77313272	     90.00000001	      0.00000000	      0.00000000
